<?xml version="1.0" encoding="UTF-8"?>
<svg width="102px" height="77px" viewBox="0 0 102 77" version="1.1" xmlns="http://www.w3.org/2000/svg" xmlns:xlink="http://www.w3.org/1999/xlink">
    <!-- Generator: Sketch 53.2 (72643) - https://sketchapp.com -->
    <title>001-open-book</title>
    <desc>Created with Sketch.</desc>
    <g id="Welcome" stroke="none" stroke-width="1" fill="none" fill-rule="evenodd">
        <g id="Web" transform="translate(-859.000000, -503.000000)" fill="#000000" fill-rule="nonzero">
            <g id="001-open-book" transform="translate(859.000000, 503.000000)">
                <path d="M15.619568,0 C15.616836,0 15.6137625,0 15.6110305,0 C14.6517545,0 13.7495091,0.365416168 13.0682148,1.02950583 C12.3794075,1.70093718 12,2.59495537 12,3.54670597 L12,56.7289413 C12,58.6791624 13.6299838,60.2696404 15.633911,60.2746461 C24.0819602,60.2943352 38.2358064,62.0149615 48,72 L48,16.3432798 C48,15.6821936 47.8272005,15.061153 47.5010672,14.5472344 C39.4870657,1.9355377 24.0867412,0.019355377 15.619568,0 Z" id="Path"></path>
                <path d="M90,56.729275 L90,3.54670597 C90,2.59495537 89.6205889,1.70093718 88.9317751,1.02950583 C88.2504743,0.365416168 87.3475374,0 86.3892768,0 C86.3862032,0 86.3831297,0 86.3803977,0 C77.9134856,0.0196890904 62.5130151,1.93587141 54.498596,14.5475681 C54.1724596,15.0614867 54,15.6825273 54,16.3436136 L54,72 C63.7642863,62.0149615 77.9182667,60.2943352 86.366396,60.2746461 C88.3700008,60.2696404 90,58.6791624 90,56.729275 Z" id="Path"></path>
                <path d="M98.3597122,12 L95.719767,12 L95.719767,57.5462576 C95.719767,62.6467575 91.5549845,66.8058475 86.4354231,66.8184954 C79.2470024,66.8355871 67.3943131,68.2381305 59,76.1655947 C73.5179856,72.6187288 88.8225419,74.9243967 97.544707,76.9077156 C98.6337786,77.1552032 99.759164,76.8995116 100.631723,76.2055893 C101.501199,75.5133761 102,74.4786457 102,73.3680281 L102,15.6323244 C102.000343,13.629521 100.366906,12 98.3597122,12 Z" id="Path"></path>
                <path d="M6.28028299,57.5468077 L6.28028299,12 L3.64031677,12 C1.63344912,12 0,13.6295407 0,15.6323683 L0,73.3677439 C0,74.4787167 0.498804933,75.5131178 1.36828771,76.2053393 C2.24016858,76.8989282 3.3645352,77.1556484 4.4553284,76.9074741 C13.177563,74.9237895 28.4825839,72.6184355 43,76.1653443 C34.6059626,68.2381262 22.7531789,66.8359076 15.5647009,66.8188157 C10.4454412,66.8065095 6.28028299,62.6473693 6.28028299,57.5468077 Z" id="Path"></path>
            </g>
        </g>
    </g>
</svg>