<?xml version="1.0" encoding="UTF-8"?>
<svg width="173px" height="198px" viewBox="0 0 173 198" version="1.1" xmlns="http://www.w3.org/2000/svg" xmlns:xlink="http://www.w3.org/1999/xlink">
    <!-- Generator: Sketch 53.2 (72643) - https://sketchapp.com -->
    <title>Group 2</title>
    <desc>Created with Sketch.</desc>
    <g id="Welcome" stroke="none" stroke-width="1" fill="none" fill-rule="evenodd">
        <g id="Web" transform="translate(-270.000000, -190.000000)">
            <g id="Group-2" transform="translate(271.000000, 190.000000)">
                <g id="finance-SJu98Mdu4" transform="translate(42.000000, 0.000000)">
                    <g id="Group" transform="translate(93.008959, 10.817881)">
                        <path d="M7.23631756,0 L0.977880753,0 C0.438677307,0 0,0.428918047 0,0.956125827 L0,9.37003312 C0,9.47578064 0.0876181155,9.56125827 0.195576151,9.56125827 L7.23631756,9.56125827 C7.34447118,9.56125827 7.43189373,9.47578064 7.43189373,9.37003312 L7.43189373,1.72102649 L7.43189373,0.191225165 C7.43189373,0.0856688741 7.34447118,0 7.23631756,0 L7.23631756,0 Z M2.54248996,8.03145695 L1.76018536,8.03145695 C1.65222732,8.03145695 1.56460921,7.94597931 1.56460921,7.84023179 C1.56460921,7.73448427 1.65222732,7.64900664 1.76018536,7.64900664 L2.54248996,7.64900664 C2.650448,7.64900664 2.73806611,7.73448427 2.73806611,7.84023179 C2.73806611,7.94597931 2.650448,8.03145695 2.54248996,8.03145695 L2.54248996,8.03145695 Z M3.32479456,6.88410596 L1.76018536,6.88410596 C1.65222732,6.88410596 1.56460921,6.79862832 1.56460921,6.6928808 C1.56460921,6.58713328 1.65222732,6.50165562 1.76018536,6.50165562 L3.32479456,6.50165562 C3.43275258,6.50165562 3.52037073,6.58713328 3.52037073,6.6928808 C3.52037073,6.79862832 3.43275258,6.88410596 3.32479456,6.88410596 L3.32479456,6.88410596 Z M5.86728453,4.3981788 C5.86728453,4.47543376 5.81975951,4.54523097 5.74661403,4.57487085 C5.72236258,4.58462335 5.69693771,4.58940398 5.67170839,4.58940398 C5.62085857,4.58940398 5.57079107,4.56989901 5.53343604,4.53337499 L4.88940377,3.90367054 L4.24537152,4.53337499 C4.18943674,4.58806539 4.10533898,4.60451076 4.0321935,4.57487085 C3.95904802,4.54523097 3.91152301,4.47543376 3.91152301,4.3981788 L3.91152301,1.52980132 L0.977880753,1.52980132 C0.654397801,1.52980132 0.391152301,1.27241225 0.391152301,0.956125827 C0.391152301,0.639839405 0.654397801,0.38245033 0.977880753,0.38245033 L7.04074142,0.38245033 L7.04074142,1.52980132 L5.86728453,1.52980132 L5.86728453,4.3981788 L5.86728453,4.3981788 Z" id="Shape"></path>
                        <path d="M4.30267532,3.93656125 L4.75113142,3.49808195 C4.82760171,3.42331291 4.95120583,3.42331291 5.02767611,3.49808195 L5.47613222,3.93656125 L5.47613222,1.52980132 L4.30267532,1.52980132 L4.30267532,3.93656125 L4.30267532,3.93656125 Z" id="Path"></path>
                    </g>
                    <g id="Group">
                        <path d="M90.2882962,0.278055556 L12.225173,0.278055556 C5.49954705,0.278055556 0.0278099877,5.69240835 0.0278099877,12.3475 L0.0278099877,118.558611 C0.0278099877,119.893492 1.12069371,120.9725 2.46728259,120.9725 L90.2882962,120.9725 C91.6373246,120.9725 92.727769,119.893492 92.727769,118.558611 L92.727769,22.0030556 L92.727769,2.69194444 C92.727769,1.35947778 91.6373246,0.278055556 90.2882962,0.278055556 L90.2882962,0.278055556 Z M31.7409538,101.661389 L21.9830634,101.661389 C20.6364746,101.661389 19.5435908,100.582381 19.5435908,99.2475001 C19.5435908,97.9126195 20.6364746,96.8336113 21.9830634,96.8336113 L31.7409538,96.8336113 C33.0875427,96.8336113 34.1804265,97.9126195 34.1804265,99.2475001 C34.1804265,100.582381 33.0875427,101.661389 31.7409538,101.661389 L31.7409538,101.661389 Z M41.4988442,87.1780556 L21.9830634,87.1780556 C20.6364746,87.1780556 19.5435908,86.0990474 19.5435908,84.7641668 C19.5435908,83.4292862 20.6364746,82.3502777 21.9830634,82.3502777 L41.4988442,82.3502777 C42.845433,82.3502777 43.938317,83.4292862 43.938317,84.7641668 C43.938317,86.0990474 42.845433,87.1780556 41.4988442,87.1780556 L41.4988442,87.1780556 Z M73.2119882,55.7974999 C73.2119882,56.772711 72.6191962,57.6537807 71.7068334,58.0279332 C71.4043388,58.1510418 71.0872076,58.211389 70.7725157,58.211389 C70.1382526,58.211389 69.5137476,57.9651723 69.0478085,57.5041194 L61.0146251,49.5551835 L52.981442,57.5041194 C52.2837528,58.1944916 51.2347795,58.4020861 50.3224167,58.0279332 C49.410054,57.6537807 48.817262,56.772711 48.817262,55.7974999 L48.817262,19.5891667 L12.225173,19.5891667 C8.19028533,19.5891667 4.90675519,16.3400722 4.90675519,12.3475 C4.90675519,8.35492779 8.19028533,5.10583333 12.225173,5.10583333 L87.8488237,5.10583333 L87.8488237,19.5891667 L73.2119882,19.5891667 L73.2119882,55.7974999 L73.2119882,55.7974999 Z" id="Shape" fill="#F44336"></path>
                        <path d="M53.7937862,49.7780556 L59.3439902,44.2669123 C60.2904054,43.3271577 61.8201607,43.3271577 62.7665758,44.2669123 L68.3167798,49.7780556 L68.3167798,19.5280556 L53.7937862,19.5280556 L53.7937862,49.7780556 L53.7937862,49.7780556 Z" id="Path" fill="#4357AD"></path>
                    </g>
                </g>
                <g id="013-hand" transform="translate(0.000000, 97.000000)" fill="#000000" fill-rule="nonzero">
                    <path d="M78.8502168,45.1864501 C80.1882925,43.8513971 80.1882925,41.6907718 78.8502168,40.3557188 C77.5108015,39.0246667 75.3409487,39.0246667 74.000194,40.3557188 C72.6634573,41.6907718 72.6634573,43.8513971 74.000194,45.1864501 C75.3409487,46.5175019 77.5108015,46.5175019 78.8502168,45.1864501 Z" id="Path"></path>
                    <path d="M38.470766,99.0135332 C39.7653595,100.317007 41.8729891,100.331345 43.1845479,99.0409061 L59.3774067,83.1072404 C62.1284179,80.3595173 62.9649445,76.2913752 61.7551781,72.7550501 L65.2383134,69.3999083 C67.1136468,67.5906865 69.5827707,66.593529 72.1928382,66.593529 L116.594002,66.593529 C124.471185,66.593529 131.916403,63.5720762 137.560674,58.0857544 C137.79297,57.8602535 135.797573,60.20781 167.851812,21.9430285 C172.60605,16.325056 171.894807,7.88897253 166.264891,3.13520293 C160.670211,-1.57424872 152.289285,-0.897745652 147.521996,4.62377002 L127.813377,24.8562929 C125.324677,21.7970395 121.529639,19.890057 117.429223,19.890057 L80.1848649,19.890057 C74.8851229,17.6754547 69.2617322,16.5544674 63.4595523,16.5544674 C47.3763164,16.5544674 33.3328482,23.9738408 25.7962782,37.8845149 C22.6211312,37.2836134 19.2724144,38.2429703 16.8633219,40.6491834 L0.974536235,56.5659039 C-0.322667482,57.8654674 -0.325277383,59.9679708 0.9693161,61.2714447 L38.470766,99.0135332 Z M78.1620624,26.2822933 C78.5848934,26.4673867 79.0403504,26.5625402 79.5010272,26.5625402 L117.429223,26.5625402 C121.050692,26.5625402 124.109691,29.5123019 124.109691,33.2337198 C124.109691,36.9134268 121.113333,39.906203 117.429223,39.906203 L90.1788132,39.906203 C88.3348006,39.906203 86.8392321,41.3999844 86.8392321,43.241793 C86.8392321,45.0849053 88.3348006,46.5773829 90.1788132,46.5773829 L117.429223,46.5773829 C124.796139,46.5773829 130.788854,40.5918305 130.788854,33.2337198 C130.788854,32.6471567 130.747093,32.0658071 130.671401,31.4896718 C149.736639,11.9154035 152.425008,9.16507328 152.539851,9.0282086 C154.920233,6.22182926 159.145932,5.86598095 161.956975,8.23308965 C164.770627,10.6093224 165.126902,14.8273641 162.739995,17.6493855 L132.782945,53.4193176 C128.408472,57.6138966 122.665018,59.9223491 116.594002,59.9223491 L72.1928382,59.9223491 C67.8418555,59.9223491 63.723169,61.5842785 60.5989183,64.5992137 L57.7604698,67.3352056 L31.5945429,41.2018563 C37.7099313,29.7430167 49.185093,23.2256469 63.458247,23.2256469 C68.5739794,23.2256469 73.5200574,24.2540878 78.1620624,26.2822933 Z M21.5901543,45.3638486 C22.6916028,44.2637166 24.3829266,44.0655885 25.7258062,44.894598 C26.3039363,45.2465358 24.6439333,43.7371131 54.6544895,73.670089 C55.9895391,75.0035429 55.9177622,77.1282053 54.6727602,78.3717196 L40.8681129,91.9552216 L8.05042908,58.926495 L21.5901543,45.3638486 Z" id="Shape" stroke="#979797"></path>
                </g>
            </g>
        </g>
    </g>
</svg>