<?xml version="1.0" encoding="UTF-8"?>
<svg width="86px" height="98px" viewBox="0 0 86 98" version="1.1" xmlns="http://www.w3.org/2000/svg" xmlns:xlink="http://www.w3.org/1999/xlink">
    <!-- Generator: Sketch 53.2 (72643) - https://sketchapp.com -->
    <title>_shipping successful-H10FwM_uV</title>
    <desc>Created with Sketch.</desc>
    <g id="Welcome" stroke="none" stroke-width="1" fill="none" fill-rule="evenodd">
        <g id="Web" transform="translate(-870.000000, -660.000000)" fill="#000000">
            <g id="_shipping-successful-H10FwM_uV" transform="translate(870.000000, 660.000000)">
                <g id="Group-3">
                    <path d="M82.9094942,66 L71.5776398,66 C69.8606921,66 68.8305235,67.3195876 68.8305235,68.6391753 L68.8305235,69.2989691 L59.5590062,66.6597938 C59.2156167,66.6597938 57.8420586,66 57.498669,66 L41.7027507,66 C37.9254658,66 35.8651287,67.3195876 34.8349601,68.6391753 C34.148181,68.9690722 33.461402,76.8865979 35.8651287,76.8865979 C35.8651287,76.8865979 39.299024,77.5463918 42.0461402,78.5360825 C38.2688554,79.5257732 34.8349601,80.185567 33.1180124,80.185567 C31.4010648,80.185567 25.2200532,76.556701 20.7559894,74.2474227 C9.42413487,67.9793814 5.30346051,66.3298969 2.55634428,67.6494845 C1.86956522,67.9793814 0.496007098,68.9690722 0.152617569,71.2783505 C-0.190771961,73.5876289 0.152617569,74.9072165 0.152617569,74.9072165 C0.152617569,82.4948454 27.9671695,98 34.148181,98 C40.3291925,98 54.4081633,96.3505155 54.7515528,96.3505155 C55.0949423,96.3505155 55.4383319,96.3505155 55.7817214,96.0206186 L69.173913,90.0824742 C69.173913,91.7319588 70.5474712,92.7216495 71.9210293,92.7216495 L83.2528838,92.7216495 C84.9698314,92.7216495 86,91.4020619 86,90.0824742 L86,67.9793814 C85.6566105,67.3195876 84.2830524,66 82.9094942,66 L82.9094942,66 Z" id="Shape"></path>
                    <path d="M69.9769995,13.6714334 C69.4231277,12.9421771 68.6429874,12.3827159 67.6374116,11.9919549 C67.691133,12.9038672 67.6254735,13.6461215 67.4402943,14.2195385 L55.55079,52.7742065 C55.3389583,53.4511971 54.8762879,53.9915034 54.1637505,54.3952623 C53.4501026,54.7992949 52.7104963,55.001106 51.9442376,55.001106 L15.3639877,55.001106 C12.1934532,55.001106 10.2914101,54.0909723 9.65702557,52.2667372 C9.39286063,51.563477 9.40618687,51.0040157 9.69700429,50.5872588 C9.98740526,50.196361 10.4893603,50.0005701 11.203147,50.0005701 L45.6434249,50.0005701 C48.100728,50.0005701 49.7981577,49.5511129 50.7362695,48.6526091 C51.6750753,47.7541052 52.6192949,45.7551496 53.5699,42.6565632 L64.4291194,7.26519797 C65.010199,5.33821024 64.7725477,3.64532334 63.7154715,2.18735819 C62.6583953,0.729393039 61.1526691,0 59.1973211,0 L29.0376811,0 C28.6942528,0 28.020306,0.11684518 27.0162572,0.351356467 L27.0556806,0.233827181 C26.3157967,0.0778511797 25.6882141,0.00643058954 25.1730717,0.0188813055 C24.658068,0.0324265898 24.182349,0.181972002 23.74647,0.468885752 C23.3105909,0.755389039 22.9602218,1.06104727 22.6961957,1.38640774 C22.4320308,1.71204185 22.1741125,2.12879878 21.9232738,2.63640489 C21.6727127,3.14469511 21.4610199,3.61358086 21.2893057,4.04319897 C21.1175916,4.47281708 20.9192249,4.92884165 20.6950387,5.41113587 C20.4701584,5.8928828 20.2527742,6.2899375 20.0412201,6.60229996 C19.8825546,6.81067843 19.6583683,7.08404689 19.3674121,7.422679 C19.07715,7.76117429 18.8392211,8.0608124 18.6543195,8.32118286 C18.4695567,8.58155333 18.3503146,8.81592779 18.2978426,9.02444308 C18.2453705,9.2585439 18.2714677,9.6036066 18.3771059,10.0596312 C18.4826053,10.5149716 18.5224452,10.8467627 18.4956539,11.055278 C18.3901545,12.0447678 18.0267369,13.3010588 17.406095,14.8249717 C16.7854532,16.3486109 16.2233913,17.4491995 15.7215751,18.1259164 C15.6159369,18.2558964 15.3255359,18.5489671 14.8498169,19.0048549 C14.3740979,19.460469 14.0835581,19.85725 13.9781976,20.1957453 C13.8724205,20.3258621 13.8657574,20.6906271 13.9582082,21.2894928 C14.050659,21.888769 14.0841134,22.3051155 14.0574609,22.53949 C13.9512674,23.4251327 13.6215818,24.5968682 13.0664607,26.0553806 C12.5113395,27.5134826 11.9567736,28.7116245 11.4016524,29.6489856 C11.3226667,29.8050984 11.0983417,30.1043261 10.7279833,30.5474894 C10.3584577,30.9903792 10.1334386,31.3550073 10.0543141,31.6406897 C10.0015644,31.8490681 10.0085051,32.2136962 10.0743034,32.7344372 C10.1399629,33.2551781 10.1334386,33.6456654 10.0543141,33.905899 C9.84317648,34.8948416 9.44672085,36.0868266 8.86536365,37.4803491 C8.28414526,38.8729138 7.68960064,40.0657197 7.08145215,41.0542518 C6.92348068,41.3150328 6.70498588,41.6213751 6.42791115,41.9724579 C6.15041997,42.3235407 5.93261924,42.6298831 5.77395371,42.8901167 C5.6155658,43.1504872 5.50978877,43.4238557 5.45690026,43.7104958 C5.43052541,43.8668822 5.47050413,44.1206853 5.57614234,44.4727259 C5.68164173,44.8238087 5.72148164,45.1037446 5.69469034,45.3128071 C5.66803786,45.6770248 5.6155658,46.159319 5.53630243,46.7585952 C5.45690026,47.3569137 5.41706035,47.7079965 5.41706035,47.8119805 C4.83584197,49.3750242 4.86193919,51.0287803 5.49646253,52.7743433 C6.23634645,54.8044941 7.55050801,56.5177674 9.43964128,57.9107425 C11.3289134,59.3042649 13.2903693,60 15.3251195,60 L51.9057858,60 C53.6225109,60 55.2409549,59.433424 56.760285,58.3012298 C58.2794763,57.1682146 59.2904659,55.7690825 59.7915881,54.1013707 L70.6900921,18.7109632 C71.2720046,16.8354202 71.0344921,15.155805 69.9769995,13.6714334 Z M27.9475558,13.5250276 L28.7780792,11.0655401 C28.8833315,10.7325658 29.100622,10.4444098 29.4302278,10.2010721 C29.7598336,9.9581382 30.0960869,9.83606557 30.4387107,9.83606557 L54.4790205,9.83606557 C54.8478189,9.83606557 55.1112265,9.95759984 55.2695204,10.2010721 C55.4273988,10.4445444 55.4544043,10.7325658 55.3491521,11.0655401 L54.5179361,13.5250276 C54.4121299,13.8581364 54.1956703,14.1456195 53.8652336,14.3896302 C53.5353508,14.6325641 53.19979,14.7540984 52.8573047,14.7540984 L28.8176873,14.7540984 C28.4484734,14.7540984 28.1850658,14.6329679 28.0267719,14.3896302 C27.8686166,14.1456195 27.8423035,13.8581364 27.9475558,13.5250276 Z M24.6311141,23.6885582 L25.4615209,21.2294745 C25.566776,20.8965003 25.7843492,20.6083443 26.1136867,20.3650066 C26.4433012,20.1215343 26.7791478,20 27.1221962,20 L51.1623083,20 C51.5315319,20 51.7955005,20.1211305 51.953383,20.3650066 C52.1112656,20.6084789 52.1377179,20.8965003 52.0320473,21.2294745 L51.2016405,23.6885582 C51.0965239,24.0215325 50.8789507,24.3099577 50.5496132,24.5530262 C50.2195833,24.7964985 49.8841521,24.9180328 49.5409653,24.9180328 L25.5008531,24.9180328 C25.1319065,24.9180328 24.8683534,24.7969023 24.7103324,24.5530262 C24.5518958,24.3099577 24.5257206,24.0215325 24.6311141,23.6885582 Z" id="Shape" fill-rule="nonzero"></path>
                </g>
            </g>
        </g>
    </g>
</svg>